<svg width="220" height="173" viewBox="0 0 220 173" fill="none" xmlns="http://www.w3.org/2000/svg">
<path d="M50.0829 170.961C1.2281 161.059 -6.52434 111.547 27.2201 91.8892C52.0813 77.4059 86.0268 103.127 111.244 64.2394C125.921 41.6118 177.26 34.7377 202.929 65.633C228.598 96.5276 173.217 79.1782 175.304 104.948C177.391 130.718 98.9378 180.864 50.0829 170.961Z" fill="#E9F3FE"/>
<path d="M181.269 172.219H99.5253C96.955 172.219 94.8694 170.229 94.8694 167.81V12.9826C94.8694 10.5483 96.9712 8.57336 99.5253 8.57336H181.269C183.839 8.57336 185.925 10.5636 185.925 12.9826V167.81C185.925 170.244 183.823 172.219 181.269 172.219Z" fill="#CA5F00"/>
<path d="M190.096 172.219H108.352C105.781 172.219 103.697 170.229 103.697 167.81V12.9826C103.697 10.5483 105.798 8.57336 108.352 8.57336H190.096C192.666 8.57336 194.751 10.5636 194.751 12.9826V167.81C194.751 170.244 192.65 172.219 190.096 172.219Z" fill="#F1A34F"/>
<path opacity="0.4" d="M162.565 16.5191H138.884C138.383 16.5191 137.963 16.121 137.963 15.6464C137.963 15.1718 138.383 14.7738 138.884 14.7738H162.549C163.051 14.7738 163.47 15.1718 163.47 15.6464C163.487 16.121 163.066 16.5191 162.565 16.5191Z" fill="#CA5F00"/>
<path opacity="0.4" d="M134.683 16.5191C134.181 16.5191 133.761 16.121 133.761 15.6464C133.761 15.1718 134.181 14.7738 134.683 14.7738C135.184 14.7738 135.604 15.1718 135.604 15.6464C135.604 16.121 135.2 16.5191 134.683 16.5191Z" fill="#CA5F00"/>
<path opacity="0.4" d="M144.415 163.186C144.415 160.079 147.082 157.568 150.347 157.568C153.628 157.568 156.279 160.094 156.279 163.186C156.279 166.279 153.612 168.805 150.347 168.805C147.066 168.805 144.415 166.295 144.415 163.186Z" fill="#CA5F00"/>
<path d="M186.976 21.556H111.261V153.924H186.976V21.556Z" fill="#ADCBF9"/>
<path d="M186.976 21.556H111.261V39.744H186.976V21.556Z" fill="#E9F3FE"/>
<path d="M121.219 36.238C124.584 36.238 127.312 33.6539 127.312 30.4663C127.312 27.2786 124.584 24.6945 121.219 24.6945C117.853 24.6945 115.124 27.2786 115.124 30.4663C115.124 33.6539 117.853 36.238 121.219 36.238Z" fill="#ADCBF9"/>
<path d="M168.111 26.1948H132.645C131.465 26.1948 130.495 27.1134 130.495 28.231C130.495 29.3486 131.465 30.2672 132.645 30.2672H168.111C169.291 30.2672 170.261 29.3486 170.261 28.231C170.244 27.1134 169.291 26.1948 168.111 26.1948Z" fill="#ADCBF9"/>
<path d="M153.015 32.7168H131.678C130.966 32.7168 130.384 33.268 130.384 33.9416C130.384 34.6152 130.966 35.1664 131.678 35.1664H153.015C153.726 35.1664 154.308 34.6152 154.308 33.9416C154.308 33.268 153.726 32.7168 153.015 32.7168Z" fill="#ADCBF9"/>
<path d="M182.19 46.7864V125.877C182.19 126.78 181.414 127.514 180.46 127.514H118.922C117.968 127.514 117.192 126.78 117.192 125.877V46.7864C117.192 45.8832 117.968 45.1483 118.922 45.1483H180.46C181.398 45.1483 182.19 45.8832 182.19 46.7864Z" fill="#E9F3FE"/>
<path d="M150.022 133.424C145.076 133.424 141.067 137.221 141.067 141.906C141.067 146.591 145.076 150.388 150.022 150.388C154.969 150.388 158.977 146.591 158.977 141.906C158.977 137.221 154.969 133.424 150.022 133.424Z" fill="#EBF2F9"/>
<path d="M148.504 139.318C148.407 139.38 148.31 139.441 148.229 139.502C148.181 139.533 148.132 139.579 148.068 139.609C148.019 139.64 147.954 139.686 147.906 139.717C147.809 139.778 147.728 139.839 147.631 139.915C142.103 144.019 144.77 146.33 144.77 146.33C144.77 146.33 146.887 145.519 147.89 144.202C147.89 144.202 147.793 143.483 147.307 143.084C147.307 143.084 146.936 142.227 148.827 140.987L149.182 140.742C151.026 139.426 151.769 140.023 151.769 140.023C152.011 140.589 152.707 140.895 152.707 140.895C154.339 140.405 155.826 138.767 155.826 138.767C155.826 138.767 154.356 135.629 148.504 139.318Z" fill="#C65447"/>
<path d="M129.317 136.303C126.052 136.303 123.401 138.813 123.401 141.906C123.401 144.998 126.052 147.509 129.317 147.509C132.582 147.509 135.234 144.998 135.234 141.906C135.234 138.813 132.582 136.303 129.317 136.303Z" fill="#EBF2F9"/>
<path d="M131.614 140.084H130.773V139.992C130.773 139.732 130.547 139.517 130.273 139.517H128.3C128.025 139.517 127.799 139.732 127.799 139.992V140.084H126.958C126.296 140.084 125.762 140.589 125.762 141.217V142.962C125.762 143.59 126.296 144.095 126.958 144.095H131.614C132.277 144.095 132.81 143.59 132.81 142.962V141.217C132.826 140.589 132.277 140.084 131.614 140.084ZM130.191 142.335C130.046 142.809 129.529 143.07 129.044 142.947C128.542 142.809 128.267 142.319 128.397 141.86C128.542 141.385 129.06 141.125 129.545 141.247C130.046 141.37 130.321 141.86 130.191 142.335Z" fill="#ADCBF9"/>
<path d="M170.052 136.303C166.787 136.303 164.136 138.813 164.136 141.906C164.136 144.998 166.787 147.509 170.052 147.509C173.317 147.509 175.968 144.998 175.968 141.906C175.984 138.813 173.333 136.303 170.052 136.303Z" fill="#EBF2F9"/>
<path d="M172.395 140.084H167.578C166.948 140.084 166.43 140.574 166.43 141.171V142.901C166.43 143.177 166.543 143.421 166.721 143.621L166.43 144.86L168.079 144.003H172.395C173.026 144.003 173.543 143.514 173.543 142.916V141.186C173.543 140.574 173.026 140.084 172.395 140.084Z" fill="#ADCBF9"/>
<path d="M158.494 88.2915V89.6998C158.494 89.6998 158.898 94.0933 153.193 94.7367C147.487 95.3793 143.154 94.4611 143.3 91.062C143.817 88.4439 144.383 85.1986 144.415 83.0246C144.431 82.2134 144.367 81.3561 144.205 80.3911L155.277 80.1771L158.543 80.682L158.494 88.2915Z" fill="#FFB27D"/>
<path d="M158.525 80.6819L158.477 88.276C157.297 88.7963 155.971 89.1025 154.484 89.1025C149.392 89.1025 146.111 85.5656 144.397 83.0091C144.414 82.1979 144.349 81.3406 144.188 80.3756L155.26 80.1616L158.525 80.6819Z" fill="#E8945B"/>
<path d="M179.475 126.305C178.215 118.237 177.503 98.717 173.333 95.4255C168.871 91.9046 158.671 90.2816 158.462 90.2509C158.462 90.3732 158.445 90.4956 158.413 90.618C158.041 92.027 155.778 94.2311 152.594 94.4304C148.488 94.6905 143.445 92.7619 143.38 90.5264C143.38 90.511 143.38 90.4956 143.38 90.4802C143.38 90.4655 142.394 90.6488 141.779 90.7711L141.488 90.8173C138.207 91.4298 131.563 92.8689 128.734 94.8898C125.938 96.88 120.119 113.828 119.424 127.5H130.367C130.658 126.137 131.289 124.085 132.145 121.636C132.145 121.636 132.145 121.62 132.162 121.62L132.145 121.866C132.145 121.896 132.145 121.911 132.145 121.942C132.145 121.988 132.145 122.034 132.129 122.08C132.113 122.294 132.097 122.508 132.081 122.723C132.081 122.723 132.081 122.723 132.081 122.738C132.065 122.998 132.049 123.259 132.016 123.534C131.984 124.07 131.936 124.621 131.903 125.173C131.903 125.249 131.887 125.31 131.887 125.387C131.838 126.091 131.806 126.81 131.774 127.53H166.576H174.27H179.702C179.621 127.163 179.557 126.749 179.475 126.305Z" fill="#739AF0"/>
<path d="M140.954 127.53H131.757C131.789 126.81 131.821 126.091 131.87 125.386C131.87 125.31 131.87 125.249 131.886 125.172C131.918 124.621 131.951 124.07 131.999 123.534C132.016 123.274 132.032 122.998 132.064 122.738C132.064 122.738 132.064 122.738 132.064 122.723C132.08 122.508 132.096 122.294 132.112 122.08C132.112 122.033 132.112 121.988 132.129 121.942L132.145 121.651L132.646 114.027C132.646 114.027 132.808 114.241 133.115 114.639C133.374 114.991 133.729 115.481 134.166 116.094C135.814 118.466 138.562 122.646 140.954 127.53Z" fill="#4A75CB"/>
<path d="M159.093 85.8265C159.093 85.8265 143.882 88.2606 142.427 79.2736C140.973 70.2719 138.031 64.5302 147.681 62.6014C157.331 60.657 159.772 63.8261 161.033 66.7196C162.294 69.5978 163.021 84.9538 159.093 85.8265Z" fill="#FFB27D"/>
<path d="M142.669 80.6365C142.669 80.6365 144.253 80.1617 143.671 78.0947C143.106 76.0283 142.701 73.2725 144.593 73.548C146.468 73.8235 146.759 75.1857 147.389 74.2829C148.019 73.3795 147.535 70.0111 152.885 69.0622C158.235 68.1126 160.676 69.6132 163.02 68.2356C165.364 66.8574 164.976 63.2597 164.976 63.2597C164.976 63.2597 164.459 64.6379 163.44 65.1889C163.44 65.1889 166.819 59.2333 161.452 56.156C156.086 53.0787 151.511 56.156 148.731 56.6919C142.62 57.8554 138.693 58.7281 137.238 62.8311C135.783 66.9343 138.175 77.4674 142.669 80.6365Z" fill="#2B478B"/>
<path d="M159.723 81.6316C159.723 81.6316 159.723 82.596 157.299 82.9785C157.299 82.9785 155.262 83.3001 155.084 82.2897C155.084 82.2897 156.846 81.1569 159.723 81.6316Z" fill="white"/>
<path d="M131.775 48.1949H119.958V66.7657H131.775V48.1949Z" fill="#ADCBF9"/>
<path d="M130.206 50.3077C129.64 49.9862 128.735 50.369 128.735 50.369C129.042 49.9556 130.19 50.0934 130.19 50.0934C127.911 49.6341 127.442 51.0119 127.41 51.1345C125.761 49.726 123.126 52.7267 123.126 52.7267L126.908 57.488C126.908 57.488 127.248 56.7378 127.716 56.9674C128.428 57.3349 129.802 55.8499 129.365 53.8902C129.317 53.6759 129.269 53.4921 129.204 53.3084C129.349 53.3697 129.527 53.4156 129.673 53.4156C130.093 53.4156 130.707 52.4205 130.804 52.0836C130.869 51.7469 130.772 50.6292 130.206 50.3077Z" fill="#233862"/>
<path d="M130.496 66.7812H121.509C121.461 66.4441 121.445 66.0924 121.477 65.6938C121.541 64.8211 121.816 63.9181 122.172 63.1066C122.851 61.5145 123.788 60.2897 123.788 60.2897H123.804C123.837 60.2897 123.886 60.2897 123.934 60.2744C123.966 60.2744 124.015 60.2744 124.047 60.259C124.192 60.1825 124.225 59.616 124.225 59.019C124.225 58.9883 124.225 58.9577 124.225 58.9271C124.225 58.9118 124.225 58.8964 124.225 58.8811C124.225 58.8658 124.225 58.8353 124.225 58.8199C124.225 58.8046 124.225 58.774 124.225 58.7587C124.225 58.7434 124.225 58.7127 124.225 58.6974C124.225 58.6821 124.225 58.6515 124.225 58.6362C124.225 58.6209 124.225 58.5903 124.225 58.575C124.225 58.4984 124.225 58.4219 124.209 58.3453C124.209 58.2994 124.209 58.2688 124.209 58.2228C124.209 58.2228 124.209 58.2228 124.209 58.2075C124.209 58.1769 124.209 58.1616 124.209 58.131C124.209 58.0851 124.209 58.0391 124.209 57.9932C124.209 57.9779 124.209 57.9779 124.209 57.9626C124.209 57.9166 124.209 57.886 124.209 57.8401C124.209 57.8248 124.209 57.8095 124.209 57.7942C124.209 57.7789 124.209 57.7636 124.209 57.7482C124.209 57.7329 124.209 57.7176 124.209 57.7176C124.209 57.7023 124.209 57.7023 124.209 57.687C124.209 57.6717 124.209 57.6564 124.209 57.641V57.6258C124.209 57.6105 124.209 57.5952 124.209 57.5799V57.5645C124.209 57.5645 124.209 57.5645 124.209 57.5492V57.5339L126.617 57.0899L126.763 57.0593L126.908 57.0287C126.908 57.1818 126.908 57.3196 126.924 57.4727C126.989 58.9118 127.409 59.8456 127.716 60.0753C127.749 60.1059 127.781 60.1212 127.813 60.1212C127.975 60.1519 128.137 60.2284 128.315 60.3662C129.43 61.2236 130.804 64.0558 130.496 66.7812Z" fill="#FFB27D"/>
<path d="M124.192 57.5492C124.192 57.5492 124.256 58.3147 124.256 59.019C125.679 58.9884 126.439 57.7483 126.746 57.0593L124.192 57.5492Z" fill="#E8945B"/>
<path d="M127.006 56.8144C127.006 56.8144 127.749 55.6968 127.927 54.7323C128.056 54.0433 127.684 51.5173 125.001 51.8847C125.001 51.8847 124.225 51.9613 123.482 52.4205C122.899 52.7879 122.059 53.5994 122.996 55.8193L123.239 56.5695L127.006 56.8144Z" fill="#233862"/>
<path d="M123.709 58.223C123.709 58.223 127.088 58.2689 127.088 56.2786C127.088 54.2884 127.524 52.9564 125.374 52.8339C123.224 52.7114 122.804 53.4769 122.626 54.1352C122.464 54.8089 122.837 58.1617 123.709 58.223Z" fill="#FFB27D"/>
<path d="M129.364 66.7812C129.009 65.5561 128.718 64.6071 128.718 64.6071L128.475 63.5813L127.974 61.5145L127.618 60.0907C127.618 60.0907 127.635 60.0907 127.683 60.0907C127.796 60.106 128.039 60.1366 128.33 60.1826C128.88 60.2591 129.639 60.4122 130.172 60.6112C130.172 60.6112 130.189 60.6112 130.189 60.6265C130.464 60.7337 130.674 60.8562 130.787 61.0093C130.803 61.0246 130.819 61.0552 130.835 61.0705C131.142 61.7135 131.45 62.8005 131.756 64.0406V66.7812H129.364Z" fill="#FFB27D"/>
<path d="M126.18 55.4823C127.603 55.8345 128.217 55.467 128.217 55.467C128.217 55.467 127.134 54.6403 126.908 53.2165C126.908 53.2165 125.857 51.6702 124.143 52.5122C124.046 52.5735 123.949 52.6501 123.868 52.7572C123.642 52.5735 123.254 52.451 122.737 53.0481C121.961 53.9514 122.656 55.5436 122.656 55.5436C122.979 55.5742 123.06 54.5331 123.222 54.0279C123.351 53.6605 123.755 53.2777 123.966 53.094C124.03 53.3237 124.709 55.5589 126.406 56.3091C126.406 56.3091 125.63 55.6508 125.049 54.7321C125.355 55.0843 125.743 55.3752 126.18 55.4823Z" fill="#233862"/>
<path d="M130.869 61.0705C130.853 61.0399 130.836 61.0246 130.82 60.994C130.788 60.948 130.74 60.9021 130.675 60.8715L130.691 60.8562C130.545 60.7643 130.383 60.6725 130.206 60.6112C129.414 60.2897 128.363 60.1672 128.363 60.1672C128.363 60.1826 128.347 60.2591 128.315 60.3816C128.25 60.6418 128.137 61.0858 127.991 61.5145C127.846 61.9585 127.7 62.3565 127.571 62.4637C127.264 62.724 122.851 63.1526 122.754 62.678C122.657 62.2188 123.902 60.4428 123.999 60.2744C123.999 60.2744 123.982 60.2744 123.966 60.2744C123.934 60.2744 123.869 60.2897 123.837 60.2897H123.821C123.32 60.3509 122.964 60.3969 122.706 60.4428C122.204 60.5194 120.475 62.5249 119.99 63.6579V66.7812H121.073H121.687H131.79V63.5047C131.467 62.4943 131.16 61.6217 130.869 61.0705Z" fill="#F1A34F"/>
<path d="M124.386 57.0439C124.386 57.0439 124.321 57.2736 123.707 57.243C123.707 57.243 123.189 57.2124 123.205 56.9521C123.205 56.9521 123.707 56.7684 124.386 57.0439Z" fill="white"/>
<path d="M71.0776 25.0313C69.5748 24.1587 67.1822 25.1997 67.1822 25.1997C68.0064 24.0975 71.0295 24.4649 71.0295 24.4649C65.0162 23.2554 63.7553 26.8991 63.6584 27.2359C59.2939 23.5004 52.3108 31.4614 52.3108 31.4614L62.3329 44.046C62.3329 44.046 63.2543 42.0404 64.4505 42.6682C66.3417 43.648 69.979 39.6981 68.8146 34.5081C68.6854 33.9416 68.5398 33.4364 68.3625 32.9618C68.7503 33.1302 69.2025 33.2527 69.6067 33.2527C70.706 33.2527 72.355 30.6041 72.581 29.7161C72.8234 28.8281 72.581 25.904 71.0776 25.0313Z" fill="#233862"/>
<path d="M42.4009 79.8246C36.0482 77.6051 29.938 67.3168 29.938 67.3168L31.9424 65.9847C33.6073 68.2964 41.1077 72.7361 41.1077 72.7361C41.2855 70.7921 41.528 69.016 41.8351 67.4238C43.9203 56.5387 48.6889 53.3236 49.9659 52.6347C50.176 52.5275 50.2892 52.4816 50.2892 52.4816C50.2892 52.4816 50.2892 52.5581 50.273 52.7112C50.2568 53.0327 50.2084 53.6911 50.1437 54.6097C49.6426 61.346 47.7028 81.677 42.4009 79.8246Z" fill="#FFB27D"/>
<path d="M73.0962 90.9397C69.9607 84.2798 68.4573 82.3967 68.4085 80.2995C68.3605 78.6458 69.233 76.8549 70.9145 72.4607C71.3024 71.4201 71.5772 70.3636 71.7546 69.2916C73.0806 60.8408 67.9238 51.6856 64.7071 51.0732C63.818 50.8436 62.2986 47.7969 62.3147 42.8672L61.9106 42.9438L55.1538 44.2144C55.1538 44.2144 55.3155 46.2353 55.3155 48.1338C55.3155 49.7106 55.2185 51.211 54.8467 51.3947C54.3618 51.4406 54.0708 51.4712 54.0708 51.4712C54.0708 51.4712 48.4293 58.8812 47.9606 65.7707C47.4918 72.66 52.4705 75.6606 47.9283 89.4243C43.2567 103.494 74.8264 94.6143 73.0962 90.9397Z" fill="#FFB27D"/>
<path d="M55.1375 44.2144C55.1375 44.2144 55.2991 46.2353 55.2991 48.1337C59.0816 48.0265 61.086 44.7656 61.8942 42.959L55.1375 44.2144Z" fill="#E8945B"/>
<path d="M62.5907 42.2394C62.5907 42.2394 64.579 39.2693 65.0478 36.7432C65.3872 34.9367 64.4173 28.2157 57.2888 29.1955C57.2888 29.1955 55.2197 29.3946 53.28 30.6346C51.7281 31.6298 49.4975 33.7578 52.003 39.6215L52.6496 41.5964L62.5907 42.2394Z" fill="#233862"/>
<path d="M53.8778 46.0056C53.8778 46.0056 62.8168 46.1434 62.833 40.8615C62.833 35.5797 63.9968 32.0431 58.2908 31.7369C52.5846 31.4307 51.4693 33.4363 51.0167 35.1969C50.5479 36.9575 51.5501 45.8372 53.8778 46.0056Z" fill="#FFB27D"/>
<path d="M65.1605 154.889C62.9136 163.37 59.519 169.877 59.519 169.877L56.5609 169.678C56.5609 169.678 58.0157 163.156 57.9187 154.352C57.854 148.198 57.062 140.911 54.4918 133.976C45.6659 110.092 47.0884 92.7157 47.0884 92.7157L63.6894 94.5527L64.4653 94.645C64.53 101.871 64.724 111.669 64.9018 119.339C65.0473 126.228 65.1928 131.404 65.1928 131.404C68.3937 137.895 67.2457 147.081 65.1605 154.889Z" fill="#163560"/>
<path d="M74.6973 153.526C73.7435 163.171 69.5405 169.418 69.5405 169.418L68.1345 170.382C68.1345 170.382 66.7926 163.584 65.8551 155.501C64.9499 147.816 63.7214 139.686 62.3312 137.19C56.7868 127.347 55.1218 90.1893 55.1218 90.1893L71.949 89.3936C73.6467 92.0879 74.3737 96.5122 74.5517 101.534C74.9884 114.226 71.8522 130.76 71.3675 133.148C71.335 133.332 71.3831 133.516 71.4805 133.685C74.8428 139.977 75.3275 147.157 74.6973 153.526Z" fill="#1C468A"/>
<path d="M60.4087 38.7181C64.175 39.6367 65.7914 38.6722 65.7914 38.6722C65.7914 38.6722 62.9142 36.4982 62.3161 32.7168C62.3161 32.7168 60.6673 27.787 54.2661 31.4919C53.6842 31.0173 52.6335 30.6652 51.2595 32.2574C49.1904 34.6458 51.0332 38.8406 51.0332 38.8406C51.8899 38.9325 52.0839 36.1614 52.5365 34.8295C52.8598 33.8343 53.9428 32.8239 54.4924 32.3646C54.6702 32.9923 56.4806 38.9018 60.9583 40.8768C60.9583 40.8768 58.8892 39.1315 57.3697 36.7279C58.2426 37.6617 59.261 38.4425 60.4087 38.7181Z" fill="#233862"/>
<path d="M86.2069 99.9267C85.528 99.5134 84.8653 98.2729 84.6222 97.7834C82.5373 92.8843 80.1451 83.3616 79.3531 81.6163C79.062 80.9729 78.5123 77.9724 77.7846 74.0837C76.4755 67.1329 74.6329 57.3809 72.7741 53.5075C72.548 53.0482 71.9171 52.6502 71.0763 52.3133C68.5548 51.3182 64.239 50.8895 64.239 50.8895L66.5021 60.1366L67.1648 62.8464C67.1648 62.8464 69.1694 69.5524 70.721 75.0179C71.4805 77.6661 72.1114 80.024 72.3862 81.203C73.1944 84.8315 82.0526 98.7477 82.0526 98.7477C82.0526 98.7477 82.3275 98.9163 82.6341 99.7582C82.9414 100.6 85.4467 105.101 86.5298 105.101C87.5966 105.101 87.8234 103.571 88.0495 102.606C88.2594 101.657 87.047 100.432 86.2069 99.9267Z" fill="#FFB27D"/>
<path d="M31.9262 66.0001C31.9262 65.7399 32.1525 61.9584 31.4412 61.1623C30.73 60.3662 29.2751 59.2333 28.8225 59.2639C28.3699 59.2945 26.5757 61.5451 27.1091 63.2751C27.6425 65.005 29.9055 67.3322 29.9055 67.3322L31.9262 66.0001Z" fill="#FFB27D"/>
<path d="M35.1925 61.3613L31.0544 62.5401C30.9088 62.586 30.7795 62.5095 30.7311 62.3717L28.3711 54.8852C28.3225 54.7475 28.4033 54.625 28.5488 54.579L32.687 53.4002C32.8324 53.3543 32.9617 53.4308 33.0103 53.5686L35.3703 61.0551C35.4188 61.1929 35.3379 61.3306 35.1925 61.3613Z" fill="#F1A34F"/>
<path d="M34.125 61.6674L30.3749 62.7391C30.1324 62.8157 29.8737 62.6779 29.8091 62.4482L27.5622 55.3292C27.4814 55.0996 27.6269 54.8546 27.8694 54.7934L31.6195 53.7217C31.862 53.6452 32.1206 53.7829 32.1853 54.0126L34.4321 61.1316C34.4968 61.3613 34.3675 61.6062 34.125 61.6674Z" fill="#D86713"/>
<path d="M74.6966 153.526C73.7428 163.171 69.5404 169.418 69.5404 169.418L68.1013 170.657C68.1013 170.657 66.7923 163.6 65.8547 155.501C66.8407 155.578 71.2212 155.715 74.6966 153.526Z" fill="#FFB27D"/>
<path d="M70.7548 75.3388C71.7566 75.5996 74.9571 76.166 78.6429 74.2521C77.1232 67.2405 74.9733 57.4267 72.8072 53.5227C72.7104 53.339 72.5168 53.1553 72.2738 52.9869C72.29 52.9716 72.29 52.9563 72.29 52.9563C70.2694 51.5631 66.1314 51.1344 66.1314 51.1344C66.1314 51.1344 64.8544 56.4928 64.0462 57.1818C63.238 57.886 51.5672 59.0189 51.2923 57.7482C51.0337 56.5387 54.3313 51.808 54.5738 51.3947C54.5899 51.3794 54.0403 51.4406 54.0403 51.4406C52.7148 51.609 51.7773 51.7315 51.0984 51.8386C49.7729 52.053 48.9647 52.5888 48.8838 52.6807C47.3159 53.8136 43.6142 57.2736 42.1755 65.6175C42.1755 65.6175 44.0021 67.9902 46.5723 68.695C46.6369 68.7097 46.7016 68.7251 46.7824 68.7405C46.3298 75.8136 43.5818 87.5866 44.584 94.3996C45.5377 100.952 60.0697 99.2679 62.9632 98.6714C64.9352 98.2575 66.4709 96.2827 67.5539 92.7618C67.9096 95.2261 68.7179 98.105 70.5442 98.2882C73.5186 98.5791 74.7472 98.0896 75.1026 97.033C75.2001 96.7267 75.2319 96.2981 75.2001 95.7624C75.0058 92.0724 72.0477 83.407 70.7548 75.3388Z" fill="#F1A34F"/>
<path d="M65.1596 154.888C62.9128 163.37 59.5181 169.877 59.5181 169.877L56.5601 169.678C56.5601 169.678 58.0148 163.156 57.9179 154.352C58.9363 154.827 61.0053 155.302 65.1596 154.888Z" fill="#D9935C"/>
<path d="M61.2323 172.204H59.3411C58.7106 172.112 58.2419 171.943 57.5953 171.852C56.6093 171.729 56.1566 172.112 56.0758 172.204C56.0597 172.219 56.0597 172.219 56.0597 172.219H48.0582C47.8642 171.943 48.042 171.315 48.236 170.857C48.3653 170.535 48.6401 170.305 48.9796 170.213C49.8201 169.984 51.5013 169.769 53.0369 168.453C53.8936 167.718 57.1911 165.743 57.1911 165.743H57.2073C57.272 165.743 57.6276 165.85 59.1309 167.044C59.9068 167.657 61.2323 166.172 61.2323 166.172C61.2323 166.172 61.4748 166.371 61.6688 166.723C61.8143 167.014 61.9274 167.397 61.8465 167.886C61.7334 168.575 62.1052 169.831 62.4123 170.704C62.6063 171.224 62.7518 171.592 62.7518 171.592C62.7518 171.592 62.8488 172.02 61.2323 172.204Z" fill="#233862"/>
<path d="M61.6695 166.723C61.2169 167.029 60.2632 167.611 59.6489 167.688C58.7921 167.795 57.208 165.743 57.208 165.743H57.2242C57.2888 165.743 57.6445 165.85 59.1478 167.044C59.9237 167.657 61.2492 166.172 61.2492 166.172C61.2492 166.172 61.4916 166.355 61.6695 166.723Z" fill="#466AA5"/>
<path d="M61.2323 172.203H59.3411C58.7106 172.112 58.2419 171.943 57.5953 171.852C56.6093 171.729 56.1566 172.112 56.0758 172.203C56.0597 172.219 56.0597 172.219 56.0597 172.219H48.0582C47.8642 171.943 48.042 171.315 48.236 170.857C48.4785 170.657 48.5431 171.745 48.6886 171.913C48.8179 172.081 55.2191 171.974 55.5909 171.729C55.9627 171.469 57.0619 171.025 58.6136 171.377C59.9553 171.683 61.9436 170.902 62.4285 170.688C62.6224 171.208 62.768 171.576 62.768 171.576C62.768 171.576 62.8488 172.02 61.2323 172.203Z" fill="#466AA5"/>
<path d="M71.2691 172.204H69.3778C68.7476 172.112 68.2785 171.943 67.6322 171.852C66.6462 171.729 66.1936 172.112 66.1128 172.204C66.0966 172.219 66.0966 172.219 66.0966 172.219H58.0951C57.9012 171.943 58.0951 171.315 58.273 170.857C58.4023 170.535 58.6771 170.305 59.0166 170.213C59.8571 169.984 61.5382 169.769 63.0738 168.453C63.9306 167.718 67.2281 165.743 67.2281 165.743H67.2443C67.309 165.743 67.6646 165.85 69.168 167.044C69.9437 167.657 71.2691 166.172 71.2691 166.172C71.2691 166.172 71.5115 166.371 71.7058 166.723C71.8513 167.014 71.9644 167.397 71.8838 167.886C71.7701 168.575 72.1424 169.831 72.449 170.704C72.6433 171.224 72.7888 171.592 72.7888 171.592C72.7888 171.592 72.9019 172.02 71.2691 172.204Z" fill="#233862"/>
<path d="M71.7229 166.723C71.27 167.029 70.3169 167.611 69.7023 167.688C68.8453 167.795 67.2615 165.743 67.2615 165.743H67.2777C67.3423 165.743 67.6979 165.85 69.2013 167.044C69.9771 167.657 71.3025 166.172 71.3025 166.172C71.3025 166.172 71.5286 166.355 71.7229 166.723Z" fill="#466AA5"/>
<path d="M71.2691 172.203H69.3778C68.7476 172.112 68.2792 171.943 67.6322 171.852C66.6462 171.729 66.1936 172.112 66.1128 172.203C66.0966 172.219 66.0966 172.219 66.0966 172.219H58.0951C57.9012 171.943 58.0951 171.315 58.273 170.857C58.5154 170.657 58.5801 171.745 58.7256 171.913C58.8549 172.081 65.2561 171.974 65.6279 171.729C65.9996 171.469 67.0988 171.025 68.6508 171.377C69.9925 171.683 71.9806 170.902 72.4653 170.688C72.6595 171.208 72.8051 171.576 72.8051 171.576C72.8051 171.576 72.9019 172.02 71.2691 172.203Z" fill="#466AA5"/>
<path opacity="0.4" d="M75.1974 95.7471C73.193 95.1192 70.639 93.4353 67.5517 89.669C59.4048 79.6869 66.8566 67.9748 67.8589 67.7608C68.8607 67.5462 70.7365 75.3389 70.7365 75.3389C72.0457 83.4071 75.0038 92.0725 75.1974 95.7471Z" fill="#D86713"/>
<path d="M28.4676 59.5242C28.4676 59.5242 29.7769 58.4065 30.8438 59.4629C31.9106 60.5193 30.4396 62.4177 29.3566 62.877C28.2736 63.3363 27.918 63.5812 27.918 63.5812L28.4676 59.5242Z" fill="#FFB27D"/>
<path d="M55.6223 42.8671C55.6223 42.8671 55.4606 43.4947 53.828 43.3876C53.828 43.3876 52.454 43.311 52.5025 42.6221C52.5025 42.6374 53.828 42.1475 55.6223 42.8671Z" fill="white"/>
<path d="M30.5188 171.346C30.8745 171.469 31.3756 171.515 31.9413 171.499C29.355 170.06 20.9494 167.565 24.9421 167.06C28.6115 166.585 31.3756 170.122 32.2808 171.484C32.7011 171.469 33.1537 171.423 33.6225 171.377C29.9692 167.442 18.9935 155.149 24.9421 155.455C30.7937 155.761 33.6871 167.32 34.5115 171.255C34.9318 171.193 35.3682 171.132 35.7885 171.071C35.5945 169.815 35.5945 167.688 37.5666 167.029C40.2823 166.141 39.6033 169.616 38.6334 170.704C39.3286 170.657 39.8782 170.673 40.1529 170.826C40.8804 171.255 41.1875 171.836 41.3168 172.204H25.0067C26.0412 171.806 28.8539 170.78 30.5188 171.346Z" fill="#ACD29A"/>
</svg>
