<svg width="32" height="32" viewBox="0 0 32 32" fill="none" xmlns="http://www.w3.org/2000/svg">
<path d="M30.9998 15.9989C30.9998 24.2832 24.2841 30.9989 15.9999 30.9989C7.71569 30.9989 1 24.2832 1 15.9989C1 7.71472 7.71569 0.999023 15.9999 0.999023C24.2841 0.999023 30.9998 7.71472 30.9998 15.9989Z" stroke="#2F88F0" stroke-width="2"/>
<path d="M15.9717 1.49023V30.9525" stroke="#2F88F0" stroke-width="1.8"/>
<path d="M30.7027 16.2217H1.24048" stroke="#2F88F0" stroke-width="2"/>
<path d="M29.3334 9.33301H2.66675" stroke="#2F88F0" stroke-width="2"/>
<path d="M29.3334 22.666H2.66675" stroke="#2F88F0" stroke-width="2"/>
<path d="M16.6752 1.34961C14.1082 1.83576 9.00017 5.10818 9.00017 16.0763C8.94183 19.9463 10.0531 27.9619 16.354 30.6222" stroke="#2F88F0" stroke-width="2"/>
<path d="M15.9424 1.34961C18.5094 1.83576 23.4065 5.10828 23.4065 16.0764C23.4649 19.9464 22.4401 28.0344 16.1393 30.6948" stroke="#2F88F0" stroke-width="2"/>
</svg>
