<svg width="32" height="32" viewBox="0 0 32 32" fill="none" xmlns="http://www.w3.org/2000/svg">
<path d="M12.7058 23.3872C12.0241 25.4322 10.3996 26.9346 8.00757 27.7319C6.93468 28.0866 5.81568 28.2826 4.68608 28.3136C4.42086 28.3136 4.16651 28.2082 3.97897 28.0207C3.79143 27.8332 3.68608 27.5788 3.68608 27.3136C3.71706 26.184 3.91305 25.065 4.26783 23.9921C5.06508 21.6001 6.56745 19.9755 8.61245 19.2939C8.73703 19.2523 8.86858 19.2357 8.99957 19.245C9.13056 19.2544 9.25844 19.2894 9.3759 19.3481C9.49336 19.4068 9.5981 19.4881 9.68415 19.5873C9.77019 19.6865 9.83586 19.8017 9.87739 19.9263C9.91892 20.0509 9.9355 20.1824 9.9262 20.3134C9.91689 20.4444 9.88187 20.5723 9.82315 20.6897C9.76442 20.8072 9.68313 20.9119 9.58392 20.998C9.48472 21.084 9.36953 21.1497 9.24495 21.1912C6.78783 22.0102 6.0267 24.6775 5.79133 26.2085C7.32158 25.9731 9.98932 25.2121 10.8084 22.7547C10.85 22.6301 10.9156 22.5149 11.0017 22.4157C11.0877 22.3165 11.1925 22.2352 11.31 22.1765C11.4274 22.1178 11.5553 22.0827 11.6863 22.0734C11.8173 22.0641 11.9489 22.0807 12.0734 22.1222C12.198 22.1638 12.3132 22.2294 12.4124 22.3155C12.5117 22.4015 12.593 22.5063 12.6517 22.6237C12.7104 22.7412 12.7454 22.8691 12.7548 23.0001C12.7641 23.1311 12.7475 23.2626 12.7059 23.3872H12.7058ZM25.1922 13.8785L24.0711 14.9999V22.6567C24.0718 22.9195 24.0204 23.1797 23.9198 23.4225C23.8193 23.6652 23.6716 23.8856 23.4853 24.0709L19.4423 28.1136C19.1864 28.3696 18.8657 28.5513 18.5145 28.6394C18.1634 28.7275 17.7949 28.7186 17.4485 28.6137C17.102 28.5088 16.7904 28.3118 16.5471 28.0437C16.3038 27.7757 16.1378 27.4466 16.0668 27.0916L15.0786 22.1499L9.84982 16.9211L4.90808 15.9327C4.55312 15.8617 4.22408 15.6958 3.95606 15.4525C3.68803 15.2092 3.49105 14.8977 3.38614 14.5512C3.28122 14.2048 3.2723 13.8364 3.36032 13.4852C3.44835 13.1341 3.63001 12.8135 3.88595 12.5575L7.92858 8.51461C8.11389 8.32834 8.3343 8.18067 8.57705 8.08013C8.8198 7.97959 9.08008 7.92817 9.34282 7.92886H16.9998L18.1211 6.80749C21.6947 3.23424 25.3614 3.33786 26.7723 3.54836C27.1958 3.60983 27.5881 3.80651 27.8906 4.10908C28.1932 4.41164 28.3899 4.8039 28.4514 5.22736C28.6621 6.63811 28.7658 10.305 25.1923 13.8786L25.1922 13.8785ZM5.3002 13.9715L10.0142 14.9142L14.9998 9.92886H9.34295L5.3002 13.9715ZM11.7573 15.9999L15.9998 20.2425L23.7779 12.4644C24.7542 11.4881 26.9709 8.85761 26.4733 5.52274C23.1408 5.02861 20.5114 7.24561 19.5353 8.22174L11.7573 15.9999ZM22.0711 16.9999L17.0854 21.9855L18.0283 26.6995L22.0709 22.6567L22.0711 16.9999Z" fill="#2F88F0"/>
</svg>
